<svg width="160" height="160" viewBox="0 0 160 160" fill="none" xmlns="http://www.w3.org/2000/svg">
<rect x="80" y="5" width="106" height="106" rx="20" transform="rotate(45 80 5)" fill="#A2A2A2"/>
<path fill-rule="evenodd" clip-rule="evenodd" d="M112.224 79.8245C108.158 82.171 105.584 83.6562 102.467 81.7062L100.748 82.6975L92.3044 87.5725C85.2682 91.635 81.3422 92.961 78.3652 91.8657L76.6069 92.883L72.3852 95.3205C61.1272 101.821 55.8004 96.25 53.2199 91.375C50.6362 86.5 48.1272 79.3013 59.3852 72.8013L63.6069 70.3638L65.3652 69.3498C65.9047 66.2233 69.0182 63.4868 76.0544 59.4243L84.4979 54.5493L86.6267 53.3208C86.6917 49.5313 89.3339 48.0038 92.7237 46.0473C98.8792 42.495 102.574 40.3598 112.324 57.25C122.074 74.137 119.611 75.5573 112.224 79.8245ZM103.861 74.0688C102.331 72.1448 100.608 69.4603 98.2519 65.375C93.6629 57.4223 93.1137 54.364 93.1202 53.5028C93.5622 53.0608 94.2089 52.6903 95.3334 52.0468L95.3724 52.024C95.5577 51.9168 95.7592 51.803 95.9737 51.6763C96.2044 51.5463 96.4157 51.4228 96.6139 51.3058C97.7319 50.6558 98.3754 50.282 98.9799 50.1195C99.7307 50.5453 102.106 52.5473 106.695 60.5C109.055 64.582 110.521 67.416 111.421 69.704C111.886 70.8318 112.045 71.758 112.12 72.2683C111.6 72.6843 110.846 73.1198 109.672 73.7925L109.669 73.7957C109.451 73.9193 109.221 74.0525 108.974 74.1955C108.727 74.3353 108.496 74.4718 108.281 74.5953C107.108 75.2778 106.354 75.7133 105.733 75.9538C105.33 75.6385 104.606 75.034 103.861 74.0688ZM97.4979 77.0685L97.8327 76.8735C96.3344 74.813 94.6347 72.1058 92.6229 68.625C90.6112 65.141 89.1714 62.2843 88.2094 59.915L87.7479 60.1783L79.3044 65.0533C75.9699 66.974 74.0167 68.2675 72.6679 69.5285C72.1544 69.9608 71.9367 70.2695 71.8457 70.4385V70.4418C71.8587 70.6173 71.8944 71.108 72.2877 71.9855C72.9409 73.5325 74.0037 75.3753 75.5052 77.9753L75.9634 78.7715C77.4682 81.3748 78.5277 83.2142 79.5417 84.5532C80.1072 85.3332 80.5134 85.6095 80.6597 85.7103H80.6629C80.8547 85.7168 81.2284 85.681 81.8622 85.4535C83.6302 84.9173 85.7264 83.8675 89.0544 81.9435L97.4979 77.0685ZM66.9577 75.9342L66.8569 75.9928L62.6352 78.4335C58.0917 81.053 57.6334 82.9998 57.5457 83.6108C57.3994 84.6605 57.7764 86.0905 58.9627 88.333C59.9572 90.2115 60.9777 91.193 61.9007 91.5538C62.5377 91.8008 64.5754 92.3208 69.1352 89.6915L73.3569 87.254L73.4577 87.1922C72.4404 85.668 71.3679 83.8058 70.1102 81.6315L70.1069 81.625C68.8492 79.4443 67.7734 77.582 66.9577 75.9342Z" fill="black"/>
<path fill-rule="evenodd" clip-rule="evenodd" d="M50.8377 100.254C49.2842 101.151 47.2985 100.618 46.3982 99.0645L43.1482 93.4355C42.2512 91.8788 42.7842 89.893 44.3377 88.9927C45.8945 88.0957 47.8802 88.6288 48.7805 90.1855L52.0305 95.8145C52.9275 97.368 52.3945 99.3537 50.8377 100.254Z" fill="black"/>
<path fill-rule="evenodd" clip-rule="evenodd" d="M91.44 93.8385C89.7045 94.3032 88.6775 96.0875 89.1423 97.8197L93.299 113.338C93.6793 114.762 94.9663 115.75 96.4385 115.75C98.577 115.75 100.131 113.722 99.578 111.658L95.418 96.1395C94.9565 94.404 93.1723 93.3737 91.44 93.8385Z" fill="black"/>
<path fill-rule="evenodd" clip-rule="evenodd" d="M81.8004 112.5C81.8004 114.294 80.3444 115.75 78.5504 115.75C76.7532 115.75 75.3004 114.294 75.3004 112.5V102.75C75.3004 100.953 76.7532 99.5 78.5504 99.5C80.3444 99.5 81.8004 100.953 81.8004 102.75V112.5Z" fill="black"/>
<path fill-rule="evenodd" clip-rule="evenodd" d="M66.4214 113.338C66.0412 114.762 64.7509 115.75 63.2819 115.75C61.1434 115.75 59.5899 113.722 60.1424 111.658L61.6862 105.889C62.1509 104.154 63.9352 103.124 65.6674 103.588C67.4029 104.053 68.4299 105.837 67.9652 107.57L66.4214 113.338Z" fill="black"/>
</svg>
